<?xml version="1.0" encoding="utf-8"?>
<!-- Generator: Adobe Illustrator 27.5.0, SVG Export Plug-In . SVG Version: 6.00 Build 0)  -->
<svg version="1.1" id="Ebene_1" xmlns="http://www.w3.org/2000/svg" xmlns:xlink="http://www.w3.org/1999/xlink" x="0px" y="0px"
	 viewBox="0 0 1080 1920" style="enable-background:new 0 0 1080 1920;" xml:space="preserve">
<style type="text/css">
	.st0{fill:#E8734D;}
	.st1{fill:#EEA886;}
	.st2{fill:#B5C5BC;}
	.st3{fill:#A77860;}
	.st4{fill:#EEBDBC;}
	.st5{fill:#F2F7F1;}
	.st6{fill:#DB9C7C;}
	.st7{fill:#CF8C6C;}
</style>
<g>
	<path class="st0" d="M500.9,549.8c0,0-11.2-44.6,16.4-67.2c27.6-22.6,58.2-14.5,73.5,0c15.3,14.5,34.1,44,16.6,85.9
		c-17.6,41.9-21.3,31.9-13.6,62.8c7.8,30.8,17.3,52.1,1.8,66.2c-15.5,14-39.6,10.3-41.9-7.3c-2.3-17.5-4.3-80-5.9-89.1
		C546.1,591.9,500.9,549.8,500.9,549.8L500.9,549.8z"/>
	<path class="st1" d="M354,935.5c0,0-4.9,5-6.4,9.5c-1.3,3.6-5.7,8.5-7.8,11.2c-2.1,2.8-9.8,15.6-10.8,19.1
		c-0.4,1.4,0.5,11.3-0.7,14.1c-1.2,2.8-4.3,8.3-1.8,9.2c2.5,0.9,6.7-3.2,6.7-3.2s-0.9,2.7,1.1,4.1c3.8,2.9,6.6,1.6,6.6,1.6
		s0.9,3.3,2.8,4.1c4.2,1.8,6.8,0.4,6.8,0.4s1.5,2.1,4.6,2.6c3.9,0.7,6.4-2.3,6.4-2.3s4.7,2,6.7,0c2-2,2.4-4.5,3.5-6.5
		c1.1-2,6.2-21.1,3.2-36c-3-14.9,5.5-27.5,5.5-27.5L354,935.5L354,935.5z"/>
	<path class="st2" d="M401.7,1069.8c0,29.5-23.9,53.5-53.5,53.5c-29.5,0-53.5-23.9-53.5-53.5c0-29.5,23.9-53.5,53.5-53.5
		C377.8,1016.3,401.7,1040.2,401.7,1069.8L401.7,1069.8z"/>
	<path class="st2" d="M396.8,1059.9l-4.1-0.6v0L396.8,1059.9L396.8,1059.9z M400.8,1060.5l-8.2-1.3c0.1-0.5,5.6-37.9-11.8-58.4
		c-7.5-8.8-18.5-13.3-32.6-13.3c-14.1,0-25.1,4.5-32.6,13.3c-17.5,20.5-11.9,58-11.8,58.4l-8.2,1.3c-0.3-1.7-6.3-41.6,13.7-65
		c9.2-10.7,22.3-16.2,38.9-16.2c16.6,0,29.7,5.4,38.9,16.2C407.1,1018.9,401.1,1058.8,400.8,1060.5L400.8,1060.5z"/>
	<path class="st2" d="M787,637.2c0,29.5-24,53.5-53.5,53.5c-29.5,0-53.5-23.9-53.5-53.5c0-29.5,24-53.5,53.5-53.5
		C763,583.7,787,607.7,787,637.2L787,637.2z"/>
	<path class="st1" d="M579.8,635.7c0,0,19.1-5.4,44.8,5.3c25.7,10.8,23.1,6.8,50.4,13.1c27.4,6.3,30.8,9.5,30.8,9.5
		s9.9-26.2,11.7-40.4c1.9-14.6,4.6-49.5,4.6-49.5l27.6,3.9c0,0-0.2,56-3.1,75.5c-7.1,47.5-10.5,56.2-18.6,56
		c-8.1-0.1-36.5,1.2-56.4-3.7c-18.4-4.5-40.8-7.8-57.1-0.1L579.8,635.7L579.8,635.7z"/>
	<path class="st1" d="M598.8,801.9c-0.7,8.6,2.4,19.7,4.4,26.9c2.2,8,9.4,37.5,9.4,37.5s-58.8,17.8-147.5,1.6c0,0,5.8-22.9,7.9-34.2
		c1.1-6.1,4.5-17.9,3-29.2c-0.4-3.2-1.7-9.1-3.3-16.2c-4.2-18.2-10.7-43.6-10.9-46.9c-0.4-4.5-24.8-29.3-3-59c0,0,5.6-30.8,7.1-39.1
		c0,0,38-17.3,48.1-18.8c10.1-1.5,47.7,0,47.7,0s31.9,12.4,43.6,13.9c11.6,1.5,7.4,36.1,7.4,36.1s8.3,23.9,7.8,39.5
		c-0.8,21-10.6,26.6-11.4,28.1c-0.5,1.1-5.1,26.5-7.9,44.1h0C599.9,793.4,599,799.4,598.8,801.9L598.8,801.9z"/>
	<path class="st1" d="M465.8,643.3c0,0-16.2,4.9-24.6,10c-8.7,5.2-19.9,22.8-23.3,37.1c-3.4,14.4-6.7,37.3-11.2,51.4
		c-4.5,14.1-17.2,50.5-23.7,63.7c-6.5,13.2-12.4,68.5-16.3,81.7c-3.9,13.2-18.4,57.4-18.4,57.4l22.9,11.6c0,0,46.5-102,51-117.5
		c4.5-15.5,5.4-34.4,9.6-45.9c4.2-11.6,22.8-54,25.6-62.1C460.2,722.6,491.9,646.9,465.8,643.3L465.8,643.3z"/>
	<path class="st1" d="M542,959.8c-7.6-2.5-10.2,5.5-10.2,5.5c-5.3,13.7-23.1,48.6-38,79.9c0,0-0.1,0.1-0.1,0.1
		c-6.7,14-12.8,27.3-16.9,37.7c-13.5,33.8-49.1,82.4-51.1,97.1c-2,14.8,3.9,30.8,4.8,54.3c0.6,16-2.9,121.2-3.5,141.1l-3.2,3.5
		c-21,12.7-34.4,3.9-34.4,3.9s-18.6-119.2-19.9-150.2c-1.1-25.6-8.7-43-5.5-73.7c1.6-15.3,16.7-42.1,18.9-58.7
		c1.7-12.8,16.2-49.3,26.3-80.4c3-9.2,5.6-18,7.4-25.5c7.9-33,27.7-80.8,32.9-92.1c5.1-10.9,12.7-26.8,13.2-27.7c0,0,0,0,0-0.1
		l76.4-0.1L542,959.8L542,959.8z"/>
	<path class="st1" d="M758.1,1372.2c0,0-11.3,10.6-32.3-2.1c0,0-39.1-104.8-48.2-120.1c-9.1-15.2-23.3-55.2-25.3-70
		c-2-14.7-16.7-30.7-30.2-64.4c-5.7-14.1-18.6-39.3-32.2-65.3c-18.9-36-39.3-73.5-43.7-85.1c0,0-1.5-6.7-8-6
		c-0.9,0.1-1.8,0.3-2.9,0.7l-73.2-84.4l84-1.3l68.5-1c0,0,8.6,17.7,13.8,29c5.2,11.3,27.3,60.8,35.2,93.9c1.9,8.1,4.3,17.6,6.8,27.5
		c7.7,30.7,16.8,65.9,18.5,78.4c2.2,16.6,10.1,41.6,17.8,54.9c7.7,13.3,25.3,52.4,28.5,77.8C738.3,1260.2,758.1,1372.2,758.1,1372.2
		L758.1,1372.2z"/>
	<path class="st1" d="M511,499.7c0,0-18,28.6-6.8,68.4c11.3,39.9,27.4,42.4,40.8,38.4c16.2-4.9,31.6-38.6,34.3-53.6
		c2.6-15,12.7-51.2-26.2-55.8C535.3,495,517.3,495.6,511,499.7L511,499.7z"/>
	<path class="st1" d="M558.4,595c0,0-0.3,43.4,5.6,55.4c5.9,12.1-53.5,4.6-53.5,4.6s7.3-49,4.7-60.7
		C512.6,582.5,558.4,595,558.4,595L558.4,595z"/>
	<path class="st0" d="M500.6,542c0,0,14.7-34.6,29.3-33.3c0,0,28.4,37,53.3,51.3c0,0,30.7-50.3-41.5-72.1
		C541.6,487.8,497.9,470.5,500.6,542L500.6,542z"/>
	<path class="st3" d="M518.1,598.2c0,0,9.5,11.4,19.9,9.6c10.4-1.8,16.2-6.9,16.2-6.9s-4.8,11.4-17.4,11.4
		C526,612.3,518.1,598.2,518.1,598.2L518.1,598.2z"/>
	<path class="st4" d="M589.5,634.4c0,0,18.5,30.2,23.1,40.1c0,0,24.4,46.1-3.6,67.6c0,0-2.9,24.1-7.9,44.1c0,0-61.7-12.6-128.5,2
		c0,0-10.9-41.3-10.9-46.9c0,0-26.3-32.1-3-59c0,0,20.7-41.9,22.4-45.8C481.1,636.6,528.2,606.5,589.5,634.4L589.5,634.4z"/>
	<path class="st1" d="M504,627c0,0-32.2,71,29.2,73c61.4,2,37.7-66.5,36-73.1C569.2,627,543.7,611.1,504,627L504,627z"/>
	<path class="st5" d="M426.9,1375.5c0,0-3.8,2.9-8.5,2.3c-4.8-0.6-18.9-6.5-25.1-3.9c-6.2,2.5-9.6,30.2-21.7,36.9
		c-12.1,6.8-48.5,27.9-46.5,45.9c2,18.2,51,13.2,63.7-1.7c12.7-14.9,23.7-7.6,33.8-18C432.7,1426.6,425.3,1385.9,426.9,1375.5
		L426.9,1375.5z"/>
	<path class="st5" d="M722.4,1360.8c0,0,3.7,3.3,8.5,2.7c4.8-0.6,18.9-6.5,25.1-3.9c6.2,2.5,9.6,30.2,21.7,36.9
		c12.1,6.8,48.5,27.9,46.5,45.9c-2,18.2-51,13.2-63.7-1.7c-12.7-14.9-23.7-7.6-33.8-18C716.5,1412.3,723.9,1371.2,722.4,1360.8
		L722.4,1360.8z"/>
	<path class="st6" d="M333,993.5c0,0,3.8-17.1,9.1-19.8c5.4-2.7,4.3,3.5,4.3,3.5s0.9-6.2,6-6c5.1,0.2,3.5,7.4,3.5,7.4s2-4.5,6.8-2.5
		c4.9,2,2.2,7.7,2.2,7.7s6.3-4.9,8.1,1.4c3,10.6-4.9,20.7-4.9,20.7s-2.1,2.3-6.7,0c0,0-4.9,5.9-11-0.3c0,0-8.5,2.6-9.6-4.5
		C340.8,1001.2,331.6,1003.4,333,993.5L333,993.5z"/>
	<path class="st1" d="M750.9,586.1c0,0-4.3,11.5-7.9,17.2c-3.6,5.7-14.3-16.7-14.3-16.7L750.9,586.1L750.9,586.1z"/>
	<path class="st1" d="M722.8,585.8c0,0-10.8-15.2-12.4-17.6c-1.6-2.4-1.5-10.3-0.7-19.5c0.9-9.1,6.1-21.1,7.5-21.9
		c1.4-0.7,2.5-2.2,6.5-1.7c4,0.5,7.2,3.1,7.2,3.1s5.3-1.8,8.9,1.8c0,0,5-1.4,8.5,3.3c0,0,4.9-1.3,7.2,2.3c0,0,0,8,0.8,10.9
		c0.8,3-1.8,23.8-5.4,39.5C750.9,586.1,743.9,595.6,722.8,585.8L722.8,585.8z"/>
	<path class="st7" d="M728.3,559.8c0,0,8,4.9,9.5,7.4c1.5,2.5,17.5-11.4,17.5-11.4S734.5,550.3,728.3,559.8L728.3,559.8z"/>
	<path class="st2" d="M782,627.3l-4.1-0.6c0,0,0,0,0,0L782,627.3L782,627.3z M786.1,628l-8.2-1.3c0.1-0.5,5.6-37.9-11.8-58.4
		c-7.5-8.8-18.5-13.3-32.6-13.3s-25.1,4.5-32.6,13.3c-17.5,20.5-11.9,58-11.8,58.4l-8.2,1.3c-0.3-1.7-6.3-41.6,13.7-65
		c9.2-10.7,22.3-16.2,38.9-16.2s29.7,5.4,38.9,16.2C792.4,586.4,786.3,626.3,786.1,628L786.1,628z"/>
	<path class="st6" d="M717,529.2c0,0-1.6,23.2,2.1,23.9c3.7,0.7,5.5-1.3,5.5-1.3l3.7,9.9c0,0,6.1,5.2,9.9-3c0,0,5.2,5.4,8-2.9
		c0,0,5,2,7-1.6c2-3.6,2.4-18.6,2.4-18.6s-1.3-3.2-7.2-2.3c0,0-3.1-4.7-8.5-3.3c0,0-3-3.4-8.9-1.8c0,0-7.4-7-13.7-1.4
		C717.3,526.8,717,528.3,717,529.2L717,529.2z"/>
	<path class="st1" d="M710.4,567.5c0,0,8.3-13.7,16-19.2c1.8-1.2,3.7-2.1,5.5-1c1.8,1.2,2.4,5.3-0.8,11.4
		c-3.3,6.1-4.7,15.5-4.7,15.5S721.2,579.5,710.4,567.5L710.4,567.5z"/>
	<path class="st2" d="M670.5,1023.7c-32.2,1.7-80.6,26.7-80.6,26.7c-18.9-36-39.3-73.5-43.7-85.1c0,0-1.5-6.7-8-6
		c-4.9-43.7-10.6-70.3-2.1-85.4l78.5-0.6c0,0,8.6,17.7,13.8,29c5.2,11.3,27.3,60.8,35.2,93.9C665.6,1004.3,668,1013.8,670.5,1023.7
		L670.5,1023.7z"/>
	<path class="st2" d="M542,959.8c-7.6-2.5-10.2,5.5-10.2,5.5c-5.3,13.7-23.1,48.6-38,79.9c0,0-0.1,0.1-0.1,0.1s-44.8-19.7-84.5-25.4
		h0c0,0,26.1-104.8,53.5-145.3c0,0,0,0,0-0.1l76.4-0.1L542,959.8L542,959.8z"/>
	<path class="st5" d="M465.1,867.9c0,0,67.2,1.4,147.5-1.6l3.5,9.8c0,0-59.3,11.3-154.7,1.2L465.1,867.9L465.1,867.9z"/>
	<path class="st5" d="M471.5,784.2l2.9,12.1c0,0,79.6-14.3,125.1,0l1.5-10l2.6-11.5c0,0-18.7-15-134.5,0L471.5,784.2z"/>
</g>
</svg>
