<?xml version="1.0" encoding="utf-8"?>
<!-- Generator: Adobe Illustrator 27.5.0, SVG Export Plug-In . SVG Version: 6.00 Build 0)  -->
<svg version="1.1" id="Ebene_1" xmlns="http://www.w3.org/2000/svg" xmlns:xlink="http://www.w3.org/1999/xlink" x="0px" y="0px"
	 viewBox="0 0 1080 1920" style="enable-background:new 0 0 1080 1920;" xml:space="preserve">
<style type="text/css">
	.st0{fill:#1F555C;}
	.st1{fill:#F2F7F1;}
	.st2{fill:#EEA886;}
	.st3{fill:#474747;}
	.st4{fill:#A77860;}
	.st5{fill:#B5C5BC;}
</style>
<g>
	<path class="st0" d="M622.5,919.2c0,0,6.2,16.4,8.9,21.7c2.7,5.3,60.4,115.6,65.4,141.5c4.9,25.9,23.8,87.4,28.8,94.8
		c4.9,7.5,21.1,55.2,29.1,94.7c8.1,39.5,25.1,107,28.7,115.3c3.6,8.3-30.9,8.8-30.9,8.8s-50.2-100-61.4-118.4
		c-11.2-18.4-21.5-50-22.9-70.1c-1.3-20.2-15.7-30.7-28.2-46c-12.6-15.3-73.1-131.5-84.3-142.1c-11.2-10.5-18.2-9.7-18.2-9.7v-84.2
		L622.5,919.2L622.5,919.2z"/>
	<path class="st0" d="M456.1,919.2c0,0-6.2,16.4-8.8,21.7c-2.7,5.3-66.9,122.4-71.8,148.3c-4.9,25.9-17.4,80.6-22.3,88
		c-4.9,7.5-21.1,55.2-29.2,94.7c-8.1,39.5-25.1,107-28.7,115.3c-3.6,8.3,30.9,8.8,30.9,8.8s50.2-100,61.4-118.4
		c11.2-18.4,21.5-50,22.9-70.1c1.3-20.2,15.7-30.7,28.2-46c12.6-15.3,73.1-131.5,84.3-142.1c11.2-10.5,18.4-9.7,18.4-9.7l-0.2-84.2
		L456.1,919.2L456.1,919.2z"/>
	<path class="st1" d="M785.5,1382.8c0,0,12.4,18.9,22.1,24.1c9.8,5.3,45.5,20,51.3,32.2c4.1,8.5-1.5,25.4-35.9,19.8
		c-34.4-5.6-46.2-24.1-56.6-26.3c-10.4-2.2-21.7-10.2-22.4-25.5c-0.7-15.3,5.6-12.5,4.2-18.1S785.5,1382.8,785.5,1382.8
		L785.5,1382.8z"/>
	<path class="st1" d="M294.5,1382.8c0,0-12.4,18.9-22.1,24.1c-9.7,5.3-45.5,20-51.3,32.2c-4.1,8.5,1.5,25.4,35.9,19.8
		c34.4-5.6,46.1-24.1,56.6-26.3c10.4-2.2,21.7-10.2,22.4-25.5c0.7-15.3-5.6-12.5-4.2-18.1C333,1383.4,294.5,1382.8,294.5,1382.8
		L294.5,1382.8z"/>
	<path class="st1" d="M643.2,727.9c-9.2-31.5,4.6-97.7,4.6-97.7c-17.8-7.7-40.7-1-50.5-1c-9.8,0-36.9-7.5-36.9-7.5h-21.9h-21.9
		c0,0-27.1,7.5-36.9,7.5c-9.8,0-32.7-6.7-50.5,1c0,0,13.8,67.3,4.7,98.9c0,0,21.4,59,26.6,67.7c5.2,8.7,0.1,41-0.1,49.1
		c-0.3,11.7-2,44.8-4.4,73.3c0,0,26.2,15.6,82.5,17c55.7-3.6,83.9-17,83.9-17c-3.5-34-5.8-62.5-7.2-73.6c-1-8.1-3.9-40.1,1.3-48.9
		C621.7,788,643.2,727.9,643.2,727.9L643.2,727.9z"/>
	<path class="st2" d="M647.8,630.1c0,0,15.1,7,22.2,7.5c7.1,0.5,18.1-10.3,31.8-9c13.7,1.3,18.9,8.5,31.7,7.9
		c12.8-0.6,17.2-3.2,18.1-8c0.9-4.7,17.2-33.7,10.4-73.5c-6.8-39.8,12.4-27.6,12.4-27.6s18.7,33.9,22.5,71.4
		c3.8,37.5-8.1,74.2-8.6,79.3c-0.5,5.1-3.3,12.7-6.8,14.7c-3.5,2-48.3,5.8-63.7,6.6c-15.5,0.8-47.4-4.4-56.1,1.4
		c-8.6,5.8-19.5,29.8-19.5,29.8S627.4,656.5,647.8,630.1L647.8,630.1z"/>
	<path class="st2" d="M429.4,630.1c0,0-15.1,7-22.2,7.5c-7.1,0.5-18.1-10.3-31.8-9c-13.7,1.3-18.9,8.5-31.7,7.9
		c-12.8-0.6-17.2-3.2-18.1-8c-0.9-4.7-17.2-33.7-10.4-73.5c6.8-39.8-12.4-27.6-12.4-27.6s-18.7,33.9-22.5,71.4
		c-3.8,37.5,8.1,74.2,8.6,79.3c0.5,5.1,3.3,12.7,6.8,14.7c3.5,2,48.3,5.8,63.7,6.6c15.4,0.8,47.4-4.4,56.1,1.4
		c8.6,5.8,18.5,28.1,18.5,28.1S449.8,656.5,429.4,630.1L429.4,630.1z"/>
	<path class="st2" d="M566.4,586c0,0-3.3,20.9,3.5,35.1c0,0,7.4,33.1-26.6,35.3c-34,2.2-35.4-28.2-35.4-28.2s7.9-11.1,1.8-40.7
		C503.7,557.9,566.4,586,566.4,586L566.4,586z"/>
	<path class="st2" d="M543.1,465.8c0,0,43.7,6.1,38.6,75.9c-5.1,69.8-43.6,65-46.2,65c-2.6,0-38.5,2.1-43.2-82.9
		C492.3,523.8,489.7,460.9,543.1,465.8L543.1,465.8z"/>
	<path class="st2" d="M581.9,522c0,0,4.6-5.3,6.5-0.1c1.9,5.2-5.6,28.1-6.1,30c0,0-0.8,2.1-2,1C579.1,551.9,581.9,522,581.9,522
		L581.9,522z"/>
	<path class="st2" d="M493.4,523.1c0,0-4.8-5.2-6.5,0.1c-1.7,5.3,6.5,29,6.9,29.9c0,0,0.9,2,2,0.9
		C496.9,552.9,493.4,523.1,493.4,523.1L493.4,523.1z"/>
	<path class="st3" d="M582.1,532.7l-6,8.7c0,0-0.2-18.7-1.3-21.6c-1.1-2.9,0.9-13.2,0-15.3c-0.9-2.1-29.6,6.4-77.2,2.6
		c0,0,5.7,16.7,2.6,18c-3.1,1.3-1.1,21.9-1.1,21.9l-5.3-5.8c0,0-6.6-35.2-6.1-41.1c0.6-7.9-2.9-44.5,64-39.7
		c7.7,0.6,15.1,3.2,21.3,7.8c7,5.2,14.2,13.4,13.8,24.9C586.3,508.3,582.1,532.7,582.1,532.7L582.1,532.7z"/>
	<path class="st4" d="M512.6,596c0,0,19.9,22.2,50.1-1.1c0,0-8.2,17.3-26.3,18.1S512.6,596,512.6,596L512.6,596z"/>
	<path class="st2" d="M486.4,628.5c0,0,1,79.7,52.1,82.1v-91.4C538.6,619.3,514.9,620.1,486.4,628.5L486.4,628.5z"/>
	<path class="st2" d="M590.7,628.5c0,0-1,79.7-52.1,82.1v-91.4C538.6,619.3,562.3,620.1,590.7,628.5L590.7,628.5z"/>
	<path class="st5" d="M802.7,532.7c0,31.3-25.4,56.6-56.6,56.6c-31.3,0-56.6-25.3-56.6-56.6c0-31.3,25.3-56.6,56.6-56.6
		C777.3,476,802.7,501.4,802.7,532.7L802.7,532.7z"/>
	<path class="st1" d="M773.6,532.7c0,15.2-12.3,27.5-27.5,27.5s-27.6-12.3-27.6-27.5c0-15.2,12.3-27.5,27.6-27.5
		S773.6,517.4,773.6,532.7L773.6,532.7z"/>
	<path class="st5" d="M388.9,532.7c0,31.3-25.3,56.6-56.6,56.6c-31.3,0-56.6-25.3-56.6-56.6c0-31.3,25.3-56.6,56.6-56.6
		C363.5,476,388.9,501.4,388.9,532.7L388.9,532.7z"/>
	<path class="st1" d="M359.8,532.7c0,15.2-12.3,27.5-27.6,27.5c-15.2,0-27.5-12.3-27.5-27.5c0-15.2,12.3-27.5,27.5-27.5
		C347.5,505.1,359.8,517.4,359.8,532.7L359.8,532.7z"/>
</g>
</svg>
